<?xml version="1.0" encoding="utf-8" standalone="no"?>
<!DOCTYPE svg PUBLIC "-//W3C//DTD SVG 1.1//EN"
  "http://www.w3.org/Graphics/SVG/1.1/DTD/svg11.dtd">
<svg xmlns:xlink="http://www.w3.org/1999/xlink" width="470.951352pt" height="291.754563pt" viewBox="0 0 470.951352 291.754563" xmlns="http://www.w3.org/2000/svg" version="1.1">
 <metadata>
  <rdf:RDF xmlns:dc="http://purl.org/dc/elements/1.1/" xmlns:cc="http://creativecommons.org/ns#" xmlns:rdf="http://www.w3.org/1999/02/22-rdf-syntax-ns#">
   <cc:Work>
    <dc:type rdf:resource="http://purl.org/dc/dcmitype/StillImage"/>
    <dc:date>2026-05-21T21:53:09.653693</dc:date>
    <dc:format>image/svg+xml</dc:format>
    <dc:creator>
     <cc:Agent>
      <dc:title>Matplotlib v3.9.2, https://matplotlib.org/</dc:title>
     </cc:Agent>
    </dc:creator>
   </cc:Work>
  </rdf:RDF>
 </metadata>
 <defs>
  <style type="text/css">*{stroke-linejoin: round; stroke-linecap: butt}</style>
 </defs>
 <g id="figure_1">
  <g id="patch_1">
   <path d="M 0 291.754563 
L 470.951352 291.754563 
L 470.951352 0 
L 0 0 
z
" style="fill: #ffffff"/>
  </g>
  <g id="axes_1">
   <g id="patch_2">
    <path d="M 55.458906 255.166125 
L 457.218906 255.166125 
L 457.218906 22.318125 
L 55.458906 22.318125 
z
" style="fill: #ffffff"/>
   </g>
   <g id="PolyCollection_1">
    <defs>
     <path id="m3a23638608" d="M 192.162362 -254.620904 
L 192.162362 -146.379709 
L 367.495439 -153.559308 
L 396.717618 -201.229209 
L 425.939797 -186.581666 
L 455.161977 -178.412628 
L 455.161977 -209.819991 
L 455.161977 -209.819991 
L 425.939797 -241.667566 
L 396.717618 -258.852438 
L 367.495439 -232.744383 
L 192.162362 -254.620904 
z
" style="stroke: #0f766e; stroke-opacity: 0.16"/>
    </defs>
    <g clip-path="url(#p3f55d3f205)">
     <use xlink:href="#m3a23638608" x="0" y="291.754563" style="fill: #0f766e; fill-opacity: 0.16; stroke: #0f766e; stroke-opacity: 0.16"/>
    </g>
   </g>
   <g id="PolyCollection_2">
    <defs>
     <path id="m05853d39ed" d="M 192.162362 -120.459492 
L 192.162362 -48.332324 
L 367.495439 -47.172438 
L 396.717618 -95.278056 
L 425.939797 -107.935489 
L 455.161977 -103.172816 
L 455.161977 -135.021914 
L 455.161977 -135.021914 
L 425.939797 -140.54585 
L 396.717618 -138.550402 
L 367.495439 -102.956324 
L 192.162362 -120.459492 
z
" style="stroke: #be123c; stroke-opacity: 0.16"/>
    </defs>
    <g clip-path="url(#p3f55d3f205)">
     <use xlink:href="#m05853d39ed" x="0" y="291.754563" style="fill: #be123c; fill-opacity: 0.16; stroke: #be123c; stroke-opacity: 0.16"/>
    </g>
   </g>
   <g id="matplotlib.axis_1">
    <g id="xtick_1">
     <g id="line2d_1">
      <path d="M 192.162362 255.166125 
L 192.162362 22.318125 
" clip-path="url(#p3f55d3f205)" style="fill: none; stroke: #b0b0b0; stroke-opacity: 0.22; stroke-width: 0.7; stroke-linecap: square"/>
     </g>
     <g id="line2d_2">
      <defs>
       <path id="m1a0513431a" d="M 0 0 
L 0 3.5 
" style="stroke: #000000; stroke-width: 0.8"/>
      </defs>
      <g>
       <use xlink:href="#m1a0513431a" x="192.162362" y="255.166125" style="stroke: #000000; stroke-width: 0.8"/>
      </g>
     </g>
     <g id="text_1">
      <text style="font: 9px 'DejaVu Sans'; text-anchor: middle" x="192.162362" y="269.004719" transform="rotate(-0 192.162362 269.004719)">0</text>
     </g>
    </g>
    <g id="xtick_2">
     <g id="line2d_3">
      <path d="M 367.495439 255.166125 
L 367.495439 22.318125 
" clip-path="url(#p3f55d3f205)" style="fill: none; stroke: #b0b0b0; stroke-opacity: 0.22; stroke-width: 0.7; stroke-linecap: square"/>
     </g>
     <g id="line2d_4">
      <g>
       <use xlink:href="#m1a0513431a" x="367.495439" y="255.166125" style="stroke: #000000; stroke-width: 0.8"/>
      </g>
     </g>
     <g id="text_2">
      <text style="font: 9px 'DejaVu Sans'; text-anchor: middle" x="367.495439" y="269.004719" transform="rotate(-0 367.495439 269.004719)">16</text>
     </g>
    </g>
    <g id="xtick_3">
     <g id="line2d_5">
      <path d="M 396.717618 255.166125 
L 396.717618 22.318125 
" clip-path="url(#p3f55d3f205)" style="fill: none; stroke: #b0b0b0; stroke-opacity: 0.22; stroke-width: 0.7; stroke-linecap: square"/>
     </g>
     <g id="line2d_6">
      <g>
       <use xlink:href="#m1a0513431a" x="396.717618" y="255.166125" style="stroke: #000000; stroke-width: 0.8"/>
      </g>
     </g>
     <g id="text_3">
      <text style="font: 9px 'DejaVu Sans'; text-anchor: middle" x="396.717618" y="269.004719" transform="rotate(-0 396.717618 269.004719)">32</text>
     </g>
    </g>
    <g id="xtick_4">
     <g id="line2d_7">
      <path d="M 425.939797 255.166125 
L 425.939797 22.318125 
" clip-path="url(#p3f55d3f205)" style="fill: none; stroke: #b0b0b0; stroke-opacity: 0.22; stroke-width: 0.7; stroke-linecap: square"/>
     </g>
     <g id="line2d_8">
      <g>
       <use xlink:href="#m1a0513431a" x="425.939797" y="255.166125" style="stroke: #000000; stroke-width: 0.8"/>
      </g>
     </g>
     <g id="text_4">
      <text style="font: 9px 'DejaVu Sans'; text-anchor: middle" x="425.939797" y="269.004719" transform="rotate(-0 425.939797 269.004719)">64</text>
     </g>
    </g>
    <g id="xtick_5">
     <g id="line2d_9">
      <path d="M 455.161977 255.166125 
L 455.161977 22.318125 
" clip-path="url(#p3f55d3f205)" style="fill: none; stroke: #b0b0b0; stroke-opacity: 0.22; stroke-width: 0.7; stroke-linecap: square"/>
     </g>
     <g id="line2d_10">
      <g>
       <use xlink:href="#m1a0513431a" x="455.161977" y="255.166125" style="stroke: #000000; stroke-width: 0.8"/>
      </g>
     </g>
     <g id="text_5">
      <text style="font: 9px 'DejaVu Sans'; text-anchor: middle" x="455.161977" y="269.004719" transform="rotate(-0 455.161977 269.004719)">128</text>
     </g>
    </g>
    <g id="xtick_6">
     <g id="line2d_11">
      <defs>
       <path id="m69219e66c1" d="M 0 0 
L 0 2 
" style="stroke: #000000; stroke-width: 0.6"/>
      </defs>
      <g>
       <use xlink:href="#m69219e66c1" x="75.273645" y="255.166125" style="stroke: #000000; stroke-width: 0.6"/>
      </g>
     </g>
    </g>
    <g id="xtick_7">
     <g id="line2d_12">
      <g>
       <use xlink:href="#m69219e66c1" x="104.495824" y="255.166125" style="stroke: #000000; stroke-width: 0.6"/>
      </g>
     </g>
    </g>
    <g id="xtick_8">
     <g id="line2d_13">
      <g>
       <use xlink:href="#m69219e66c1" x="133.718004" y="255.166125" style="stroke: #000000; stroke-width: 0.6"/>
      </g>
     </g>
    </g>
    <g id="xtick_9">
     <g id="line2d_14">
      <g>
       <use xlink:href="#m69219e66c1" x="250.606721" y="255.166125" style="stroke: #000000; stroke-width: 0.6"/>
      </g>
     </g>
    </g>
    <g id="xtick_10">
     <g id="line2d_15">
      <g>
       <use xlink:href="#m69219e66c1" x="279.828901" y="255.166125" style="stroke: #000000; stroke-width: 0.6"/>
      </g>
     </g>
    </g>
    <g id="xtick_11">
     <g id="line2d_16">
      <g>
       <use xlink:href="#m69219e66c1" x="309.05108" y="255.166125" style="stroke: #000000; stroke-width: 0.6"/>
      </g>
     </g>
    </g>
    <g id="xtick_12">
     <g id="line2d_17">
      <g>
       <use xlink:href="#m69219e66c1" x="338.273259" y="255.166125" style="stroke: #000000; stroke-width: 0.6"/>
      </g>
     </g>
    </g>
    <g id="text_6">
     <text style="font: 10px 'DejaVu Sans'; text-anchor: middle" x="256.338906" y="282.474875" transform="rotate(-0 256.338906 282.474875)">residual PCA components removed before alignment</text>
    </g>
   </g>
   <g id="matplotlib.axis_2">
    <g id="ytick_1">
     <g id="line2d_18">
      <path d="M 55.458906 255.087023 
L 457.218906 255.087023 
" clip-path="url(#p3f55d3f205)" style="fill: none; stroke: #b0b0b0; stroke-opacity: 0.22; stroke-width: 0.7; stroke-linecap: square"/>
     </g>
     <g id="line2d_19">
      <defs>
       <path id="m412b0205ef" d="M 0 0 
L -3.5 0 
" style="stroke: #000000; stroke-width: 0.8"/>
      </defs>
      <g>
       <use xlink:href="#m412b0205ef" x="55.458906" y="255.087023" style="stroke: #000000; stroke-width: 0.8"/>
      </g>
     </g>
     <g id="text_7">
      <text style="font: 9px 'DejaVu Sans'; text-anchor: end" x="48.458906" y="258.50632" transform="rotate(-0 48.458906 258.50632)">−0.02</text>
     </g>
    </g>
    <g id="ytick_2">
     <g id="line2d_20">
      <path d="M 55.458906 224.320334 
L 457.218906 224.320334 
" clip-path="url(#p3f55d3f205)" style="fill: none; stroke: #b0b0b0; stroke-opacity: 0.22; stroke-width: 0.7; stroke-linecap: square"/>
     </g>
     <g id="line2d_21">
      <g>
       <use xlink:href="#m412b0205ef" x="55.458906" y="224.320334" style="stroke: #000000; stroke-width: 0.8"/>
      </g>
     </g>
     <g id="text_8">
      <text style="font: 9px 'DejaVu Sans'; text-anchor: end" x="48.458906" y="227.739631" transform="rotate(-0 48.458906 227.739631)">0.00</text>
     </g>
    </g>
    <g id="ytick_3">
     <g id="line2d_22">
      <path d="M 55.458906 193.553645 
L 457.218906 193.553645 
" clip-path="url(#p3f55d3f205)" style="fill: none; stroke: #b0b0b0; stroke-opacity: 0.22; stroke-width: 0.7; stroke-linecap: square"/>
     </g>
     <g id="line2d_23">
      <g>
       <use xlink:href="#m412b0205ef" x="55.458906" y="193.553645" style="stroke: #000000; stroke-width: 0.8"/>
      </g>
     </g>
     <g id="text_9">
      <text style="font: 9px 'DejaVu Sans'; text-anchor: end" x="48.458906" y="196.972942" transform="rotate(-0 48.458906 196.972942)">0.02</text>
     </g>
    </g>
    <g id="ytick_4">
     <g id="line2d_24">
      <path d="M 55.458906 162.786956 
L 457.218906 162.786956 
" clip-path="url(#p3f55d3f205)" style="fill: none; stroke: #b0b0b0; stroke-opacity: 0.22; stroke-width: 0.7; stroke-linecap: square"/>
     </g>
     <g id="line2d_25">
      <g>
       <use xlink:href="#m412b0205ef" x="55.458906" y="162.786956" style="stroke: #000000; stroke-width: 0.8"/>
      </g>
     </g>
     <g id="text_10">
      <text style="font: 9px 'DejaVu Sans'; text-anchor: end" x="48.458906" y="166.206253" transform="rotate(-0 48.458906 166.206253)">0.04</text>
     </g>
    </g>
    <g id="ytick_5">
     <g id="line2d_26">
      <path d="M 55.458906 132.020267 
L 457.218906 132.020267 
" clip-path="url(#p3f55d3f205)" style="fill: none; stroke: #b0b0b0; stroke-opacity: 0.22; stroke-width: 0.7; stroke-linecap: square"/>
     </g>
     <g id="line2d_27">
      <g>
       <use xlink:href="#m412b0205ef" x="55.458906" y="132.020267" style="stroke: #000000; stroke-width: 0.8"/>
      </g>
     </g>
     <g id="text_11">
      <text style="font: 9px 'DejaVu Sans'; text-anchor: end" x="48.458906" y="135.439564" transform="rotate(-0 48.458906 135.439564)">0.06</text>
     </g>
    </g>
    <g id="ytick_6">
     <g id="line2d_28">
      <path d="M 55.458906 101.253578 
L 457.218906 101.253578 
" clip-path="url(#p3f55d3f205)" style="fill: none; stroke: #b0b0b0; stroke-opacity: 0.22; stroke-width: 0.7; stroke-linecap: square"/>
     </g>
     <g id="line2d_29">
      <g>
       <use xlink:href="#m412b0205ef" x="55.458906" y="101.253578" style="stroke: #000000; stroke-width: 0.8"/>
      </g>
     </g>
     <g id="text_12">
      <text style="font: 9px 'DejaVu Sans'; text-anchor: end" x="48.458906" y="104.672875" transform="rotate(-0 48.458906 104.672875)">0.08</text>
     </g>
    </g>
    <g id="ytick_7">
     <g id="line2d_30">
      <path d="M 55.458906 70.48689 
L 457.218906 70.48689 
" clip-path="url(#p3f55d3f205)" style="fill: none; stroke: #b0b0b0; stroke-opacity: 0.22; stroke-width: 0.7; stroke-linecap: square"/>
     </g>
     <g id="line2d_31">
      <g>
       <use xlink:href="#m412b0205ef" x="55.458906" y="70.48689" style="stroke: #000000; stroke-width: 0.8"/>
      </g>
     </g>
     <g id="text_13">
      <text style="font: 9px 'DejaVu Sans'; text-anchor: end" x="48.458906" y="73.906186" transform="rotate(-0 48.458906 73.906186)">0.10</text>
     </g>
    </g>
    <g id="ytick_8">
     <g id="line2d_32">
      <path d="M 55.458906 39.720201 
L 457.218906 39.720201 
" clip-path="url(#p3f55d3f205)" style="fill: none; stroke: #b0b0b0; stroke-opacity: 0.22; stroke-width: 0.7; stroke-linecap: square"/>
     </g>
     <g id="line2d_33">
      <g>
       <use xlink:href="#m412b0205ef" x="55.458906" y="39.720201" style="stroke: #000000; stroke-width: 0.8"/>
      </g>
     </g>
     <g id="text_14">
      <text style="font: 9px 'DejaVu Sans'; text-anchor: end" x="48.458906" y="43.139498" transform="rotate(-0 48.458906 43.139498)">0.12</text>
     </g>
    </g>
    <g id="text_15">
     <text style="font: 10px 'DejaVu Sans'; text-anchor: middle" x="14.798438" y="138.742125" transform="rotate(-90 14.798438 138.742125)">persistent minus random median excess</text>
    </g>
   </g>
   <g id="line2d_34">
    <path d="M 192.162362 72.021524 
L 367.495439 96.043296 
L 396.717618 59.900413 
L 425.939797 78.827267 
L 455.161977 99.207797 
" clip-path="url(#p3f55d3f205)" style="fill: none; stroke: #0f766e; stroke-width: 2.2; stroke-linecap: square"/>
    <defs>
     <path id="md954caa1b5" d="M 0 3 
C 0.795609 3 1.55874 2.683901 2.12132 2.12132 
C 2.683901 1.55874 3 0.795609 3 0 
C 3 -0.795609 2.683901 -1.55874 2.12132 -2.12132 
C 1.55874 -2.683901 0.795609 -3 0 -3 
C -0.795609 -3 -1.55874 -2.683901 -2.12132 -2.12132 
C -2.683901 -1.55874 -3 -0.795609 -3 0 
C -3 0.795609 -2.683901 1.55874 -2.12132 2.12132 
C -1.55874 2.683901 -0.795609 3 0 3 
z
" style="stroke: #0f766e"/>
    </defs>
    <g clip-path="url(#p3f55d3f205)">
     <use xlink:href="#md954caa1b5" x="192.162362" y="72.021524" style="fill: #0f766e; stroke: #0f766e"/>
     <use xlink:href="#md954caa1b5" x="367.495439" y="96.043296" style="fill: #0f766e; stroke: #0f766e"/>
     <use xlink:href="#md954caa1b5" x="396.717618" y="59.900413" style="fill: #0f766e; stroke: #0f766e"/>
     <use xlink:href="#md954caa1b5" x="425.939797" y="78.827267" style="fill: #0f766e; stroke: #0f766e"/>
     <use xlink:href="#md954caa1b5" x="455.161977" y="99.207797" style="fill: #0f766e; stroke: #0f766e"/>
    </g>
   </g>
   <g id="line2d_35">
    <path d="M 192.162362 215.5319 
L 367.495439 227.427088 
L 396.717618 175.512396 
L 425.939797 161.284213 
L 455.161977 170.598135 
" clip-path="url(#p3f55d3f205)" style="fill: none; stroke: #be123c; stroke-width: 2.2; stroke-linecap: square"/>
    <defs>
     <path id="mc09eca8f77" d="M 0 3 
C 0.795609 3 1.55874 2.683901 2.12132 2.12132 
C 2.683901 1.55874 3 0.795609 3 0 
C 3 -0.795609 2.683901 -1.55874 2.12132 -2.12132 
C 1.55874 -2.683901 0.795609 -3 0 -3 
C -0.795609 -3 -1.55874 -2.683901 -2.12132 -2.12132 
C -2.683901 -1.55874 -3 -0.795609 -3 0 
C -3 0.795609 -2.683901 1.55874 -2.12132 2.12132 
C -1.55874 2.683901 -0.795609 3 0 3 
z
" style="stroke: #be123c"/>
    </defs>
    <g clip-path="url(#p3f55d3f205)">
     <use xlink:href="#mc09eca8f77" x="192.162362" y="215.5319" style="fill: #be123c; stroke: #be123c"/>
     <use xlink:href="#mc09eca8f77" x="367.495439" y="227.427088" style="fill: #be123c; stroke: #be123c"/>
     <use xlink:href="#mc09eca8f77" x="396.717618" y="175.512396" style="fill: #be123c; stroke: #be123c"/>
     <use xlink:href="#mc09eca8f77" x="425.939797" y="161.284213" style="fill: #be123c; stroke: #be123c"/>
     <use xlink:href="#mc09eca8f77" x="455.161977" y="170.598135" style="fill: #be123c; stroke: #be123c"/>
    </g>
   </g>
   <g id="line2d_36">
    <path d="M 55.458906 224.320334 
L 457.218906 224.320334 
" clip-path="url(#p3f55d3f205)" style="fill: none; stroke: #111827; stroke-linecap: square"/>
   </g>
   <g id="patch_3">
    <path d="M 55.458906 255.166125 
L 55.458906 22.318125 
" style="fill: none; stroke: #000000; stroke-width: 0.8; stroke-linejoin: miter; stroke-linecap: square"/>
   </g>
   <g id="patch_4">
    <path d="M 55.458906 255.166125 
L 457.218906 255.166125 
" style="fill: none; stroke: #000000; stroke-width: 0.8; stroke-linejoin: miter; stroke-linecap: square"/>
   </g>
   <g id="text_16">
    <text style="font: 12px 'DejaVu Sans'; text-anchor: middle" x="256.338906" y="16.318125" transform="rotate(-0 256.338906 16.318125)">M0 attention excess survives residual-PCA controls</text>
   </g>
   <g id="legend_1">
    <g id="line2d_37">
     <path d="M 64.458906 35.416562 
L 74.458906 35.416562 
L 84.458906 35.416562 
" style="fill: none; stroke: #0f766e; stroke-width: 2.2; stroke-linecap: square"/>
     <g>
      <use xlink:href="#md954caa1b5" x="74.458906" y="35.416562" style="fill: #0f766e; stroke: #0f766e"/>
     </g>
    </g>
    <g id="text_17">
     <text style="font: 10px 'DejaVu Sans'; text-anchor: start" x="92.458906" y="38.916562" transform="rotate(-0 92.458906 38.916562)">Attention excess</text>
    </g>
    <g id="line2d_38">
     <path d="M 64.458906 50.094687 
L 74.458906 50.094687 
L 84.458906 50.094687 
" style="fill: none; stroke: #be123c; stroke-width: 2.2; stroke-linecap: square"/>
     <g>
      <use xlink:href="#mc09eca8f77" x="74.458906" y="50.094687" style="fill: #be123c; stroke: #be123c"/>
     </g>
    </g>
    <g id="text_18">
     <text style="font: 10px 'DejaVu Sans'; text-anchor: start" x="92.458906" y="53.594687" transform="rotate(-0 92.458906 53.594687)">MLP excess</text>
    </g>
   </g>
  </g>
 </g>
 <defs>
  <clipPath id="p3f55d3f205">
   <rect x="55.458906" y="22.318125" width="401.76" height="232.848"/>
  </clipPath>
 </defs>
</svg>
