<?xml version="1.0" encoding="utf-8" standalone="no"?>
<!DOCTYPE svg PUBLIC "-//W3C//DTD SVG 1.1//EN"
  "http://www.w3.org/Graphics/SVG/1.1/DTD/svg11.dtd">
<svg xmlns:xlink="http://www.w3.org/1999/xlink" width="451.150937pt" height="302.842562pt" viewBox="0 0 451.150937 302.842562" xmlns="http://www.w3.org/2000/svg" version="1.1">
 <metadata>
  <rdf:RDF xmlns:dc="http://purl.org/dc/elements/1.1/" xmlns:cc="http://creativecommons.org/ns#" xmlns:rdf="http://www.w3.org/1999/02/22-rdf-syntax-ns#">
   <cc:Work>
    <dc:type rdf:resource="http://purl.org/dc/dcmitype/StillImage"/>
    <dc:date>2026-05-21T21:53:10.069254</dc:date>
    <dc:format>image/svg+xml</dc:format>
    <dc:creator>
     <cc:Agent>
      <dc:title>Matplotlib v3.9.2, https://matplotlib.org/</dc:title>
     </cc:Agent>
    </dc:creator>
   </cc:Work>
  </rdf:RDF>
 </metadata>
 <defs>
  <style type="text/css">*{stroke-linejoin: round; stroke-linecap: butt}</style>
 </defs>
 <g id="figure_1">
  <g id="patch_1">
   <path d="M -0 302.842562 
L 451.150937 302.842562 
L 451.150937 0 
L -0 0 
z
" style="fill: #ffffff"/>
  </g>
  <g id="axes_1">
   <g id="patch_2">
    <path d="M 42.190938 266.254125 
L 443.950938 266.254125 
L 443.950938 22.318125 
L 42.190938 22.318125 
z
" style="fill: #ffffff"/>
   </g>
   <g id="matplotlib.axis_1">
    <g id="xtick_1">
     <g id="line2d_1">
      <path d="M 42.190938 266.254125 
L 42.190938 22.318125 
" clip-path="url(#pbae3bce019)" style="fill: none; stroke: #b0b0b0; stroke-opacity: 0.22; stroke-width: 0.7; stroke-linecap: square"/>
     </g>
     <g id="line2d_2">
      <defs>
       <path id="mc9fb260aed" d="M 0 0 
L 0 3.5 
" style="stroke: #000000; stroke-width: 0.8"/>
      </defs>
      <g>
       <use xlink:href="#mc9fb260aed" x="42.190938" y="266.254125" style="stroke: #000000; stroke-width: 0.8"/>
      </g>
     </g>
     <g id="text_1">
      <text style="font: 9px 'DejaVu Sans'; text-anchor: middle" x="42.190938" y="280.092719" transform="rotate(-0 42.190938 280.092719)">0</text>
     </g>
    </g>
    <g id="xtick_2">
     <g id="line2d_3">
      <path d="M 104.965938 266.254125 
L 104.965938 22.318125 
" clip-path="url(#pbae3bce019)" style="fill: none; stroke: #b0b0b0; stroke-opacity: 0.22; stroke-width: 0.7; stroke-linecap: square"/>
     </g>
     <g id="line2d_4">
      <g>
       <use xlink:href="#mc9fb260aed" x="104.965938" y="266.254125" style="stroke: #000000; stroke-width: 0.8"/>
      </g>
     </g>
     <g id="text_2">
      <text style="font: 9px 'DejaVu Sans'; text-anchor: middle" x="104.965938" y="280.092719" transform="rotate(-0 104.965938 280.092719)">20</text>
     </g>
    </g>
    <g id="xtick_3">
     <g id="line2d_5">
      <path d="M 167.740938 266.254125 
L 167.740938 22.318125 
" clip-path="url(#pbae3bce019)" style="fill: none; stroke: #b0b0b0; stroke-opacity: 0.22; stroke-width: 0.7; stroke-linecap: square"/>
     </g>
     <g id="line2d_6">
      <g>
       <use xlink:href="#mc9fb260aed" x="167.740938" y="266.254125" style="stroke: #000000; stroke-width: 0.8"/>
      </g>
     </g>
     <g id="text_3">
      <text style="font: 9px 'DejaVu Sans'; text-anchor: middle" x="167.740938" y="280.092719" transform="rotate(-0 167.740938 280.092719)">40</text>
     </g>
    </g>
    <g id="xtick_4">
     <g id="line2d_7">
      <path d="M 230.515938 266.254125 
L 230.515938 22.318125 
" clip-path="url(#pbae3bce019)" style="fill: none; stroke: #b0b0b0; stroke-opacity: 0.22; stroke-width: 0.7; stroke-linecap: square"/>
     </g>
     <g id="line2d_8">
      <g>
       <use xlink:href="#mc9fb260aed" x="230.515938" y="266.254125" style="stroke: #000000; stroke-width: 0.8"/>
      </g>
     </g>
     <g id="text_4">
      <text style="font: 9px 'DejaVu Sans'; text-anchor: middle" x="230.515938" y="280.092719" transform="rotate(-0 230.515938 280.092719)">60</text>
     </g>
    </g>
    <g id="xtick_5">
     <g id="line2d_9">
      <path d="M 293.290937 266.254125 
L 293.290937 22.318125 
" clip-path="url(#pbae3bce019)" style="fill: none; stroke: #b0b0b0; stroke-opacity: 0.22; stroke-width: 0.7; stroke-linecap: square"/>
     </g>
     <g id="line2d_10">
      <g>
       <use xlink:href="#mc9fb260aed" x="293.290937" y="266.254125" style="stroke: #000000; stroke-width: 0.8"/>
      </g>
     </g>
     <g id="text_5">
      <text style="font: 9px 'DejaVu Sans'; text-anchor: middle" x="293.290937" y="280.092719" transform="rotate(-0 293.290937 280.092719)">80</text>
     </g>
    </g>
    <g id="xtick_6">
     <g id="line2d_11">
      <path d="M 356.065938 266.254125 
L 356.065938 22.318125 
" clip-path="url(#pbae3bce019)" style="fill: none; stroke: #b0b0b0; stroke-opacity: 0.22; stroke-width: 0.7; stroke-linecap: square"/>
     </g>
     <g id="line2d_12">
      <g>
       <use xlink:href="#mc9fb260aed" x="356.065938" y="266.254125" style="stroke: #000000; stroke-width: 0.8"/>
      </g>
     </g>
     <g id="text_6">
      <text style="font: 9px 'DejaVu Sans'; text-anchor: middle" x="356.065938" y="280.092719" transform="rotate(-0 356.065938 280.092719)">100</text>
     </g>
    </g>
    <g id="xtick_7">
     <g id="line2d_13">
      <path d="M 418.840937 266.254125 
L 418.840937 22.318125 
" clip-path="url(#pbae3bce019)" style="fill: none; stroke: #b0b0b0; stroke-opacity: 0.22; stroke-width: 0.7; stroke-linecap: square"/>
     </g>
     <g id="line2d_14">
      <g>
       <use xlink:href="#mc9fb260aed" x="418.840937" y="266.254125" style="stroke: #000000; stroke-width: 0.8"/>
      </g>
     </g>
     <g id="text_7">
      <text style="font: 9px 'DejaVu Sans'; text-anchor: middle" x="418.840937" y="280.092719" transform="rotate(-0 418.840937 280.092719)">120</text>
     </g>
    </g>
    <g id="text_8">
     <text style="font: 10px 'DejaVu Sans'; text-anchor: middle" x="243.070938" y="293.562875" transform="rotate(-0 243.070938 293.562875)">lag</text>
    </g>
   </g>
   <g id="matplotlib.axis_2">
    <g id="ytick_1">
     <g id="line2d_15">
      <path d="M 42.190938 254.855246 
L 443.950938 254.855246 
" clip-path="url(#pbae3bce019)" style="fill: none; stroke: #b0b0b0; stroke-opacity: 0.22; stroke-width: 0.7; stroke-linecap: square"/>
     </g>
     <g id="line2d_16">
      <defs>
       <path id="m5d9f09516c" d="M 0 0 
L -3.5 0 
" style="stroke: #000000; stroke-width: 0.8"/>
      </defs>
      <g>
       <use xlink:href="#m5d9f09516c" x="42.190938" y="254.855246" style="stroke: #000000; stroke-width: 0.8"/>
      </g>
     </g>
     <g id="text_9">
      <text style="font: 9px 'DejaVu Sans'; text-anchor: end" x="35.190938" y="258.274543" transform="rotate(-0 35.190938 258.274543)">0.0</text>
     </g>
    </g>
    <g id="ytick_2">
     <g id="line2d_17">
      <path d="M 42.190938 209.259732 
L 443.950938 209.259732 
" clip-path="url(#pbae3bce019)" style="fill: none; stroke: #b0b0b0; stroke-opacity: 0.22; stroke-width: 0.7; stroke-linecap: square"/>
     </g>
     <g id="line2d_18">
      <g>
       <use xlink:href="#m5d9f09516c" x="42.190938" y="209.259732" style="stroke: #000000; stroke-width: 0.8"/>
      </g>
     </g>
     <g id="text_10">
      <text style="font: 9px 'DejaVu Sans'; text-anchor: end" x="35.190938" y="212.679029" transform="rotate(-0 35.190938 212.679029)">0.2</text>
     </g>
    </g>
    <g id="ytick_3">
     <g id="line2d_19">
      <path d="M 42.190938 163.664218 
L 443.950938 163.664218 
" clip-path="url(#pbae3bce019)" style="fill: none; stroke: #b0b0b0; stroke-opacity: 0.22; stroke-width: 0.7; stroke-linecap: square"/>
     </g>
     <g id="line2d_20">
      <g>
       <use xlink:href="#m5d9f09516c" x="42.190938" y="163.664218" style="stroke: #000000; stroke-width: 0.8"/>
      </g>
     </g>
     <g id="text_11">
      <text style="font: 9px 'DejaVu Sans'; text-anchor: end" x="35.190938" y="167.083515" transform="rotate(-0 35.190938 167.083515)">0.4</text>
     </g>
    </g>
    <g id="ytick_4">
     <g id="line2d_21">
      <path d="M 42.190938 118.068704 
L 443.950938 118.068704 
" clip-path="url(#pbae3bce019)" style="fill: none; stroke: #b0b0b0; stroke-opacity: 0.22; stroke-width: 0.7; stroke-linecap: square"/>
     </g>
     <g id="line2d_22">
      <g>
       <use xlink:href="#m5d9f09516c" x="42.190938" y="118.068704" style="stroke: #000000; stroke-width: 0.8"/>
      </g>
     </g>
     <g id="text_12">
      <text style="font: 9px 'DejaVu Sans'; text-anchor: end" x="35.190938" y="121.488001" transform="rotate(-0 35.190938 121.488001)">0.6</text>
     </g>
    </g>
    <g id="ytick_5">
     <g id="line2d_23">
      <path d="M 42.190938 72.47319 
L 443.950938 72.47319 
" clip-path="url(#pbae3bce019)" style="fill: none; stroke: #b0b0b0; stroke-opacity: 0.22; stroke-width: 0.7; stroke-linecap: square"/>
     </g>
     <g id="line2d_24">
      <g>
       <use xlink:href="#m5d9f09516c" x="42.190938" y="72.47319" style="stroke: #000000; stroke-width: 0.8"/>
      </g>
     </g>
     <g id="text_13">
      <text style="font: 9px 'DejaVu Sans'; text-anchor: end" x="35.190938" y="75.892487" transform="rotate(-0 35.190938 75.892487)">0.8</text>
     </g>
    </g>
    <g id="ytick_6">
     <g id="line2d_25">
      <path d="M 42.190938 26.877676 
L 443.950938 26.877676 
" clip-path="url(#pbae3bce019)" style="fill: none; stroke: #b0b0b0; stroke-opacity: 0.22; stroke-width: 0.7; stroke-linecap: square"/>
     </g>
     <g id="line2d_26">
      <g>
       <use xlink:href="#m5d9f09516c" x="42.190938" y="26.877676" style="stroke: #000000; stroke-width: 0.8"/>
      </g>
     </g>
     <g id="text_14">
      <text style="font: 9px 'DejaVu Sans'; text-anchor: end" x="35.190938" y="30.296973" transform="rotate(-0 35.190938 30.296973)">1.0</text>
     </g>
    </g>
    <g id="text_15">
     <text style="font: 10px 'DejaVu Sans'; text-anchor: middle" x="14.798438" y="144.286125" transform="rotate(-90 14.798438 144.286125)">within-document autocorrelation</text>
    </g>
   </g>
   <g id="line2d_27">
    <path d="M 42.190938 26.877676 
L 45.329688 41.60368 
L 48.468438 46.326548 
L 51.607188 48.950817 
L 54.745938 50.918395 
L 57.884688 52.597909 
L 64.162188 54.977286 
L 70.439688 57.062255 
L 76.717188 58.793704 
L 92.410938 62.328908 
L 108.104688 65.507929 
L 126.937188 68.430929 
L 133.214687 69.32735 
L 145.769688 70.787559 
L 158.324688 72.306062 
L 174.018438 73.947923 
L 221.099688 78.277335 
L 236.793438 79.506974 
L 252.487188 81.030505 
L 299.568438 84.784824 
L 305.845937 85.234549 
L 312.123438 85.829631 
L 324.678438 86.702599 
L 421.979688 94.206317 
L 428.257187 94.581659 
L 452.150937 96.661198 
L 452.150937 96.661198 
" clip-path="url(#pbae3bce019)" style="fill: none; stroke: #1f77b4; stroke-opacity: 0.75; stroke-width: 1.6; stroke-linecap: square"/>
   </g>
   <g id="line2d_28">
    <path d="M 42.190938 26.877676 
L 45.329688 59.67723 
L 48.468438 70.407134 
L 51.607188 76.539825 
L 54.745938 81.368588 
L 57.884688 85.238816 
L 61.023438 88.460777 
L 64.162188 91.387079 
L 67.300938 94.078816 
L 70.439688 96.520225 
L 76.717188 100.710408 
L 79.855938 102.733726 
L 86.133438 106.312874 
L 89.272188 108.146048 
L 95.549688 111.370522 
L 108.104688 117.27392 
L 120.659688 122.253189 
L 123.798438 123.292806 
L 126.937188 124.573484 
L 136.353438 127.755236 
L 145.769688 130.69014 
L 155.185938 133.356167 
L 161.463437 134.8574 
L 170.879688 137.282964 
L 199.128438 143.818649 
L 205.405938 145.024848 
L 214.822188 147.152464 
L 224.238438 149.092511 
L 230.515938 150.320676 
L 239.932188 152.336112 
L 249.348438 154.14668 
L 261.903437 156.22796 
L 287.013438 161.559328 
L 290.152188 162.003509 
L 299.568438 164.086283 
L 312.123438 166.424467 
L 315.262188 167.180363 
L 324.678438 168.981216 
L 334.094688 170.450142 
L 340.372187 171.683816 
L 349.788437 172.990611 
L 352.927188 173.625344 
L 359.204688 174.571799 
L 368.620938 176.289524 
L 374.898438 177.005217 
L 378.037188 177.561137 
L 390.592188 179.235074 
L 393.730937 179.897528 
L 400.008438 180.609716 
L 406.285937 181.714021 
L 428.257187 184.828068 
L 447.089688 188.103779 
L 452.150937 188.692519 
L 452.150937 188.692519 
" clip-path="url(#pbae3bce019)" style="fill: none; stroke: #ff7f0e; stroke-opacity: 0.75; stroke-width: 1.6; stroke-linecap: square"/>
   </g>
   <g id="line2d_29">
    <path d="M 42.190938 26.877676 
L 45.329688 76.742973 
L 48.468438 92.50237 
L 51.607188 100.892318 
L 54.745938 107.201958 
L 57.884688 112.248178 
L 61.023438 116.117211 
L 64.162188 119.366525 
L 67.300938 122.376981 
L 70.439688 125.128398 
L 73.578438 127.731429 
L 79.855938 132.100696 
L 92.410938 139.59198 
L 108.104688 147.431396 
L 126.937188 154.475305 
L 130.075938 155.746525 
L 133.214687 156.791231 
L 148.908438 161.019272 
L 155.185938 162.483504 
L 158.324688 163.333153 
L 170.879688 166.111782 
L 174.018438 166.704832 
L 177.157188 167.443151 
L 186.573438 169.039925 
L 189.712188 169.649981 
L 192.850938 170.082939 
L 195.989688 170.787898 
L 199.128438 171.142653 
L 214.822188 173.669412 
L 221.099688 174.593268 
L 230.515938 176.183384 
L 233.654688 176.853305 
L 239.932188 177.88574 
L 243.070938 178.274379 
L 252.487188 180.180549 
L 255.625938 180.617617 
L 258.764687 181.28304 
L 261.903437 181.793548 
L 268.180938 182.979452 
L 271.319687 183.432351 
L 274.458438 183.709652 
L 277.597188 184.499376 
L 283.874687 185.371399 
L 287.013438 185.517965 
L 296.429688 186.508038 
L 299.568438 186.924234 
L 305.845937 188.06957 
L 308.984688 188.411355 
L 312.123438 188.531532 
L 315.262188 189.23825 
L 318.400937 189.455877 
L 321.539688 189.976481 
L 324.678438 190.32059 
L 334.094688 191.960955 
L 337.233438 192.344994 
L 340.372187 192.864565 
L 346.649688 193.662503 
L 349.788437 194.102201 
L 352.927188 194.336453 
L 362.343437 195.424826 
L 365.482188 196.058303 
L 368.620938 196.347976 
L 371.759687 196.761923 
L 374.898438 197.299437 
L 378.037188 197.538786 
L 381.175938 197.665641 
L 384.314687 198.156048 
L 387.453438 198.359454 
L 393.730937 199.103871 
L 396.869687 199.341527 
L 400.008438 199.802389 
L 409.424688 200.466137 
L 412.563438 201.047998 
L 421.979688 202.169122 
L 425.118438 202.251013 
L 437.673438 204.025824 
L 440.812187 204.432389 
L 452.150937 206.524951 
L 452.150937 206.524951 
" clip-path="url(#pbae3bce019)" style="fill: none; stroke: #2ca02c; stroke-opacity: 0.75; stroke-width: 1.6; stroke-linecap: square"/>
   </g>
   <g id="line2d_30">
    <path d="M 42.190938 26.877676 
L 45.329688 75.939742 
L 48.468438 92.033077 
L 51.607188 100.916084 
L 54.745938 107.104977 
L 57.884688 112.405302 
L 61.023438 116.487335 
L 64.162188 120.113894 
L 67.300938 123.371851 
L 70.439688 126.401249 
L 73.578438 128.984807 
L 79.855938 133.756091 
L 82.994688 136.058679 
L 89.272188 139.858465 
L 95.549688 143.43086 
L 104.965938 148.373739 
L 108.104688 149.908488 
L 111.243437 151.601428 
L 120.659688 155.370225 
L 133.214687 160.53402 
L 136.353438 161.503003 
L 139.492188 162.681346 
L 145.769688 164.644038 
L 155.185938 167.662409 
L 164.602188 170.308522 
L 167.740938 171.034985 
L 180.295938 174.415354 
L 183.434688 175.041452 
L 189.712188 176.754645 
L 195.989688 178.761948 
L 199.128438 179.435151 
L 208.544688 181.945019 
L 211.683438 182.387801 
L 214.822188 183.162279 
L 217.960938 184.079321 
L 221.099688 184.72877 
L 224.238438 185.621693 
L 230.515938 186.924886 
L 236.793438 188.355112 
L 246.209688 190.610644 
L 252.487188 192.019773 
L 258.764687 193.06893 
L 265.042188 194.409322 
L 268.180938 195.034727 
L 274.458438 196.4146 
L 277.597188 196.895553 
L 280.735937 197.659207 
L 287.013438 198.872859 
L 293.290937 199.877414 
L 296.429688 200.643128 
L 299.568438 201.25436 
L 302.707188 201.715079 
L 315.262188 204.376316 
L 318.400937 205.284872 
L 327.817187 207.442777 
L 330.955938 207.845136 
L 340.372187 209.801717 
L 349.788437 211.194061 
L 352.927188 211.846908 
L 356.065938 212.362216 
L 362.343437 213.771471 
L 365.482188 214.310518 
L 368.620938 214.982259 
L 378.037188 216.467614 
L 381.175938 217.116799 
L 384.314687 217.599918 
L 387.453438 217.948508 
L 390.592188 218.409964 
L 396.869687 219.579606 
L 400.008438 220.281212 
L 409.424688 221.70672 
L 415.702188 223.035507 
L 418.840937 223.453623 
L 428.257187 225.487019 
L 437.673438 226.437383 
L 440.812187 227.163286 
L 443.950938 227.423402 
L 447.089688 228.174277 
L 452.150937 228.980667 
L 452.150937 228.980667 
" clip-path="url(#pbae3bce019)" style="fill: none; stroke: #d62728; stroke-opacity: 0.75; stroke-width: 1.6; stroke-linecap: square"/>
   </g>
   <g id="line2d_31">
    <path d="M 42.190938 26.877676 
L 45.329688 75.723861 
L 48.468438 91.100184 
L 51.607188 99.843067 
L 54.745938 106.1598 
L 57.884688 111.477478 
L 61.023438 115.549604 
L 64.162188 119.124147 
L 67.300938 122.467969 
L 70.439688 125.583682 
L 73.578438 128.212911 
L 79.855938 132.918358 
L 86.133438 137.643087 
L 89.272188 139.376534 
L 92.410938 141.439034 
L 104.965938 148.853469 
L 108.104688 150.550043 
L 114.382188 153.637253 
L 117.520938 154.931051 
L 120.659688 156.351303 
L 123.798438 157.582368 
L 126.937188 159.1698 
L 130.075938 160.624601 
L 136.353438 163.239691 
L 139.492188 164.369176 
L 142.630938 165.827979 
L 152.047188 169.540234 
L 164.602188 173.997833 
L 170.879688 175.800894 
L 174.018438 176.919508 
L 183.434688 179.97683 
L 186.573438 180.664063 
L 211.683438 187.641599 
L 214.822188 188.337637 
L 217.960938 189.160578 
L 221.099688 190.145746 
L 224.238438 191.004826 
L 227.377188 192.098954 
L 230.515938 192.718013 
L 236.793438 194.517398 
L 243.070938 196.236801 
L 249.348438 198.034498 
L 252.487188 198.789477 
L 258.764687 200.698773 
L 277.597188 204.680808 
L 283.874687 206.207053 
L 287.013438 206.637772 
L 290.152188 207.261254 
L 293.290937 207.761393 
L 296.429688 208.514204 
L 305.845937 210.413119 
L 308.984688 211.267976 
L 312.123438 211.936667 
L 318.400937 212.907999 
L 321.539688 213.462139 
L 324.678438 214.334396 
L 327.817187 214.939265 
L 330.955938 215.3293 
L 334.094688 215.877991 
L 337.233438 216.286397 
L 340.372187 216.946915 
L 343.510938 217.444054 
L 346.649688 217.82084 
L 349.788437 218.311743 
L 352.927188 218.970531 
L 356.065938 219.345585 
L 368.620938 221.759701 
L 378.037188 223.338331 
L 381.175938 224.254333 
L 400.008438 227.387445 
L 403.147188 228.186578 
L 406.285937 228.695843 
L 409.424688 228.791933 
L 412.563438 229.306182 
L 415.702188 230.189822 
L 425.118438 231.71336 
L 437.673438 234.067908 
L 443.950938 234.951851 
L 452.150937 236.19081 
L 452.150937 236.19081 
" clip-path="url(#pbae3bce019)" style="fill: none; stroke: #9467bd; stroke-opacity: 0.75; stroke-width: 1.6; stroke-linecap: square"/>
   </g>
   <g id="line2d_32">
    <path d="M 42.190938 26.877676 
L 45.329688 79.529327 
L 48.468438 95.500718 
L 51.607188 104.901747 
L 54.745938 111.401844 
L 57.884688 116.828026 
L 61.023438 121.201546 
L 64.162188 124.894947 
L 70.439688 131.069477 
L 73.578438 133.737352 
L 76.717188 135.956195 
L 79.855938 138.358469 
L 82.994688 140.465192 
L 86.133438 142.709201 
L 92.410938 146.54041 
L 98.688438 150.275963 
L 104.965938 153.553677 
L 111.243437 156.406078 
L 114.382188 157.803223 
L 117.520938 159.022555 
L 120.659688 160.406804 
L 139.492188 167.521339 
L 145.769688 169.323096 
L 148.908438 170.027702 
L 152.047188 170.871216 
L 155.185938 171.888881 
L 164.602188 174.465693 
L 167.740938 175.496253 
L 174.018438 177.225698 
L 177.157188 177.88502 
L 180.295938 178.801994 
L 186.573438 180.24767 
L 189.712188 181.260939 
L 192.850938 181.935792 
L 195.989688 182.923155 
L 202.267188 183.990119 
L 205.405938 184.995744 
L 211.683438 186.452508 
L 214.822188 186.880676 
L 221.099688 188.129909 
L 224.238438 188.984546 
L 227.377188 189.677017 
L 233.654688 190.731011 
L 239.932188 191.973525 
L 243.070938 192.386297 
L 246.209688 193.019202 
L 252.487188 193.94647 
L 255.625938 194.687866 
L 258.764687 195.298629 
L 261.903437 195.749055 
L 265.042188 196.523349 
L 268.180938 196.913551 
L 271.319687 197.521732 
L 274.458438 197.939949 
L 277.597188 198.593703 
L 280.735937 199.038833 
L 287.013438 200.1198 
L 293.290937 200.944096 
L 296.429688 201.611303 
L 302.707188 202.352819 
L 305.845937 203.122201 
L 312.123438 204.227348 
L 318.400937 205.242965 
L 330.955938 206.904522 
L 334.094688 207.377524 
L 337.233438 207.664436 
L 343.510938 208.742549 
L 346.649688 209.39278 
L 352.927188 210.24599 
L 356.065938 210.831316 
L 368.620938 212.610987 
L 371.759687 212.87951 
L 378.037188 213.71446 
L 381.175938 214.081106 
L 384.314687 214.613973 
L 400.008438 216.275109 
L 403.147188 216.562856 
L 406.285937 217.009796 
L 412.563438 217.267353 
L 415.702188 217.779144 
L 418.840937 218.108041 
L 428.257187 219.411992 
L 431.395938 220.089318 
L 440.812187 221.112198 
L 443.950938 221.587575 
L 447.089688 221.766438 
L 452.150937 222.450655 
L 452.150937 222.450655 
" clip-path="url(#pbae3bce019)" style="fill: none; stroke: #8c564b; stroke-opacity: 0.75; stroke-width: 1.6; stroke-linecap: square"/>
   </g>
   <g id="line2d_33">
    <path d="M 42.190938 26.877676 
L 45.329688 84.425679 
L 48.468438 101.13615 
L 51.607188 110.308484 
L 54.745938 116.909218 
L 57.884688 122.070383 
L 61.023438 126.404238 
L 64.162188 130.070014 
L 67.300938 133.441639 
L 70.439688 136.300664 
L 73.578438 138.982943 
L 82.994688 146.012978 
L 86.133438 148.288689 
L 89.272188 150.406433 
L 98.688438 155.408198 
L 101.827188 156.845877 
L 104.965938 158.558187 
L 111.243437 161.521504 
L 114.382188 162.715473 
L 117.520938 164.076323 
L 120.659688 165.246424 
L 123.798438 166.196798 
L 126.937188 167.361409 
L 130.075938 168.73169 
L 133.214687 169.700707 
L 139.492188 172.184716 
L 142.630938 172.936923 
L 145.769688 173.841558 
L 158.324688 177.971062 
L 177.157188 183.281396 
L 189.712188 186.357294 
L 195.989688 188.307661 
L 199.128438 188.914504 
L 202.267188 189.799178 
L 205.405938 190.314495 
L 211.683438 191.733742 
L 214.822188 192.612158 
L 221.099688 193.943331 
L 230.515938 196.200065 
L 233.654688 197.043688 
L 236.793438 197.617918 
L 246.209688 199.766335 
L 249.348438 200.630049 
L 252.487188 201.198246 
L 255.625938 202.093597 
L 258.764687 202.489421 
L 261.903437 203.241032 
L 265.042188 204.131559 
L 271.319687 205.276036 
L 274.458438 205.721005 
L 287.013438 208.383167 
L 290.152188 209.202079 
L 293.290937 209.581056 
L 299.568438 210.81204 
L 305.845937 212.140448 
L 312.123438 213.402121 
L 318.400937 214.572742 
L 321.539688 215.178033 
L 327.817187 216.229105 
L 334.094688 217.363712 
L 337.233438 217.676646 
L 340.372187 218.162914 
L 343.510938 218.861901 
L 349.788437 219.820952 
L 352.927188 220.277326 
L 356.065938 220.613064 
L 362.343437 221.775773 
L 365.482188 222.230496 
L 368.620938 222.951788 
L 371.759687 223.358449 
L 374.898438 223.947304 
L 381.175938 224.686394 
L 387.453438 225.878885 
L 390.592188 226.094803 
L 403.147188 227.776153 
L 406.285937 228.489646 
L 409.424688 228.94094 
L 418.840937 229.91606 
L 421.979688 230.381065 
L 428.257187 231.001603 
L 434.534688 232.122802 
L 452.150937 234.267627 
L 452.150937 234.267627 
" clip-path="url(#pbae3bce019)" style="fill: none; stroke: #e377c2; stroke-opacity: 0.75; stroke-width: 1.6; stroke-linecap: square"/>
   </g>
   <g id="line2d_34">
    <path d="M 42.190938 26.877676 
L 45.329688 84.602642 
L 48.468438 102.862667 
L 51.607188 113.017655 
L 54.745938 120.20033 
L 57.884688 126.485443 
L 61.023438 131.257324 
L 64.162188 135.741048 
L 70.439688 143.07035 
L 73.578438 146.228791 
L 79.855938 151.914901 
L 86.133438 157.130353 
L 92.410938 161.623411 
L 95.549688 163.717307 
L 104.965938 169.030053 
L 108.104688 170.617178 
L 114.382188 173.648866 
L 117.520938 175.189227 
L 120.659688 176.495777 
L 123.798438 177.971436 
L 126.937188 179.192718 
L 130.075938 180.580222 
L 133.214687 181.683358 
L 136.353438 182.910762 
L 139.492188 183.972093 
L 142.630938 184.883809 
L 145.769688 186.08928 
L 152.047188 188.008591 
L 155.185938 188.821429 
L 158.324688 189.773924 
L 161.463437 191.12889 
L 167.740938 192.775132 
L 170.879688 193.380114 
L 174.018438 194.491254 
L 180.295938 195.83329 
L 183.434688 196.397975 
L 186.573438 197.169436 
L 189.712188 198.160865 
L 199.128438 200.45955 
L 202.267188 201.059626 
L 208.544688 202.585722 
L 211.683438 203.214334 
L 214.822188 203.707506 
L 217.960938 204.537883 
L 221.099688 205.121398 
L 224.238438 205.867656 
L 227.377188 206.199281 
L 230.515938 206.806569 
L 233.654688 207.242234 
L 236.793438 207.974665 
L 249.348438 210.096099 
L 261.903437 212.940037 
L 268.180938 213.874642 
L 271.319687 214.524676 
L 274.458438 214.99794 
L 283.874687 216.797659 
L 296.429688 218.747377 
L 302.707188 219.733391 
L 305.845937 220.376206 
L 308.984688 220.766034 
L 312.123438 221.367003 
L 315.262188 221.768184 
L 318.400937 222.334774 
L 321.539688 223.160009 
L 330.955938 224.446376 
L 334.094688 224.779023 
L 340.372187 225.860748 
L 343.510938 226.179263 
L 349.788437 227.191842 
L 368.620938 229.616218 
L 371.759687 230.216005 
L 374.898438 230.54968 
L 378.037188 231.03328 
L 384.314687 231.49177 
L 387.453438 231.832543 
L 390.592188 232.314305 
L 403.147188 233.468615 
L 406.285937 233.962265 
L 409.424688 234.233633 
L 412.563438 234.354821 
L 415.702188 234.856147 
L 425.118438 235.906207 
L 428.257187 236.050201 
L 431.395938 236.41953 
L 437.673438 236.913465 
L 443.950938 237.558522 
L 447.089688 237.942851 
L 450.228437 238.041655 
L 452.150937 238.340057 
L 452.150937 238.340057 
" clip-path="url(#pbae3bce019)" style="fill: none; stroke: #7f7f7f; stroke-opacity: 0.75; stroke-width: 1.6; stroke-linecap: square"/>
   </g>
   <g id="line2d_35">
    <path d="M 42.190938 170.986985 
L 443.950938 170.986985 
" clip-path="url(#pbae3bce019)" style="fill: none; stroke-dasharray: 3.7,1.6; stroke-dashoffset: 0; stroke: #111827"/>
   </g>
   <g id="patch_3">
    <path d="M 42.190938 266.254125 
L 42.190938 22.318125 
" style="fill: none; stroke: #000000; stroke-width: 0.8; stroke-linejoin: miter; stroke-linecap: square"/>
   </g>
   <g id="patch_4">
    <path d="M 42.190938 266.254125 
L 443.950938 266.254125 
" style="fill: none; stroke: #000000; stroke-width: 0.8; stroke-linejoin: miter; stroke-linecap: square"/>
   </g>
   <g id="text_16">
    <text style="font: 12px 'DejaVu Sans'; text-anchor: middle" x="243.070938" y="16.318125" transform="rotate(-0 243.070938 16.318125)">Top persistent directions decay at very different rates</text>
   </g>
   <g id="legend_1">
    <g id="line2d_36">
     <path d="M 49.390938 207.620375 
L 57.390938 207.620375 
L 65.390938 207.620375 
" style="fill: none; stroke: #1f77b4; stroke-opacity: 0.75; stroke-width: 1.6; stroke-linecap: square"/>
    </g>
    <g id="text_17">
     <text style="font: 8px 'DejaVu Sans'; text-anchor: start" x="71.790938" y="210.420375" transform="rotate(-0 71.790938 210.420375)">rank 1</text>
    </g>
    <g id="line2d_37">
     <path d="M 49.390938 219.362875 
L 57.390938 219.362875 
L 65.390938 219.362875 
" style="fill: none; stroke: #ff7f0e; stroke-opacity: 0.75; stroke-width: 1.6; stroke-linecap: square"/>
    </g>
    <g id="text_18">
     <text style="font: 8px 'DejaVu Sans'; text-anchor: start" x="71.790938" y="222.162875" transform="rotate(-0 71.790938 222.162875)">rank 2</text>
    </g>
    <g id="line2d_38">
     <path d="M 49.390938 231.105375 
L 57.390938 231.105375 
L 65.390938 231.105375 
" style="fill: none; stroke: #2ca02c; stroke-opacity: 0.75; stroke-width: 1.6; stroke-linecap: square"/>
    </g>
    <g id="text_19">
     <text style="font: 8px 'DejaVu Sans'; text-anchor: start" x="71.790938" y="233.905375" transform="rotate(-0 71.790938 233.905375)">rank 3</text>
    </g>
    <g id="line2d_39">
     <path d="M 49.390938 242.847875 
L 57.390938 242.847875 
L 65.390938 242.847875 
" style="fill: none; stroke: #d62728; stroke-opacity: 0.75; stroke-width: 1.6; stroke-linecap: square"/>
    </g>
    <g id="text_20">
     <text style="font: 8px 'DejaVu Sans'; text-anchor: start" x="71.790938" y="245.647875" transform="rotate(-0 71.790938 245.647875)">rank 4</text>
    </g>
    <g id="line2d_40">
     <path d="M 49.390938 254.590375 
L 57.390938 254.590375 
L 65.390938 254.590375 
" style="fill: none; stroke: #9467bd; stroke-opacity: 0.75; stroke-width: 1.6; stroke-linecap: square"/>
    </g>
    <g id="text_21">
     <text style="font: 8px 'DejaVu Sans'; text-anchor: start" x="71.790938" y="257.390375" transform="rotate(-0 71.790938 257.390375)">rank 5</text>
    </g>
    <g id="line2d_41">
     <path d="M 113.317188 207.620375 
L 121.317188 207.620375 
L 129.317188 207.620375 
" style="fill: none; stroke: #8c564b; stroke-opacity: 0.75; stroke-width: 1.6; stroke-linecap: square"/>
    </g>
    <g id="text_22">
     <text style="font: 8px 'DejaVu Sans'; text-anchor: start" x="135.717188" y="210.420375" transform="rotate(-0 135.717188 210.420375)">rank 6</text>
    </g>
    <g id="line2d_42">
     <path d="M 113.317188 219.362875 
L 121.317188 219.362875 
L 129.317188 219.362875 
" style="fill: none; stroke: #e377c2; stroke-opacity: 0.75; stroke-width: 1.6; stroke-linecap: square"/>
    </g>
    <g id="text_23">
     <text style="font: 8px 'DejaVu Sans'; text-anchor: start" x="135.717188" y="222.162875" transform="rotate(-0 135.717188 222.162875)">rank 7</text>
    </g>
    <g id="line2d_43">
     <path d="M 113.317188 231.105375 
L 121.317188 231.105375 
L 129.317188 231.105375 
" style="fill: none; stroke: #7f7f7f; stroke-opacity: 0.75; stroke-width: 1.6; stroke-linecap: square"/>
    </g>
    <g id="text_24">
     <text style="font: 8px 'DejaVu Sans'; text-anchor: start" x="135.717188" y="233.905375" transform="rotate(-0 135.717188 233.905375)">rank 8</text>
    </g>
    <g id="line2d_44">
     <path d="M 113.317188 242.847875 
L 121.317188 242.847875 
L 129.317188 242.847875 
" style="fill: none; stroke-dasharray: 3.7,1.6; stroke-dashoffset: 0; stroke: #111827"/>
    </g>
    <g id="text_25">
     <text style="font: 8px 'DejaVu Sans'; text-anchor: start" x="135.717188" y="245.647875" transform="rotate(-0 135.717188 245.647875)">1/e</text>
    </g>
   </g>
  </g>
 </g>
 <defs>
  <clipPath id="pbae3bce019">
   <rect x="42.190938" y="22.318125" width="401.76" height="243.936"/>
  </clipPath>
 </defs>
</svg>
